# xmcd
#
# Track frame offsets: 
#        183
#        16915
#        33810
#
# Disc length: 700 seconds
#
# Revision: 1
# Processed by: cddbd v1.5.2PL0 Copyright (c) Steve Scherf et al.
# Submitted via: ExactAudioCopy v0.99pb4
#
DISCID=1402ba03
DTITLE=Mr.Big - Not One Night(Single)
DYEAR=1996
DGENRE=Hard Rock
TTITLE0=Not One Night
TTITLE1=Take A Walk
TTITLE2=Daddy Brother Lover Little Boy
EXTD=YEAR: 1996
EXTT0=
EXTT1=
EXTT2=
PLAYORDER=
